<svg width="544" height="329" viewBox="0 0 544 329" fill="none" xmlns="http://www.w3.org/2000/svg">
<path d="M436.903 164.5C436.903 255.351 363.166 329 272.208 329C181.25 329 107.513 255.351 107.513 164.5C107.513 73.6492 181.25 0 272.208 0C363.166 0 436.903 73.6492 436.903 164.5Z" fill="#2D2B30"/>
<path fill-rule="evenodd" clip-rule="evenodd" d="M277.68 219.173C392.021 198.904 480.489 158.711 475.281 129.397C472.7 114.874 447.609 105.747 409.04 102.698C486.033 101.84 539.357 114.625 543.714 139.145C550.544 177.587 434.431 230.314 284.368 256.915C134.305 283.516 7.11704 273.917 0.286553 235.475C-4.07219 210.944 41.6331 180.596 114.277 154.932C79.0762 171.058 58.6364 188.264 61.2184 202.796C66.4269 232.109 163.34 239.441 277.68 219.173Z" fill="#2D2B30"/>
<path d="M195.184 154.634C193.837 157.925 191.939 160.468 189.493 162.263C187.047 164.058 183.377 164.956 178.485 164.956C172.344 164.956 167.9 163.086 165.154 159.346C162.409 155.556 161.036 149.672 161.036 141.693V134.363C161.036 126.384 162.409 120.525 165.154 116.785C167.9 112.995 172.344 111.1 178.485 111.1C183.377 111.1 187.047 111.998 189.493 113.793C191.939 115.588 193.837 118.131 195.184 121.423L193.163 122.395C192.014 119.503 190.392 117.284 188.295 115.738C186.198 114.142 182.928 113.344 178.485 113.344C176.038 113.344 173.941 113.668 172.194 114.317C170.447 114.915 168.874 115.962 167.476 117.458C166.078 118.954 165.03 121.123 164.331 123.966C163.632 126.758 163.282 130.224 163.282 134.363V141.693C163.282 145.832 163.632 149.323 164.331 152.165C165.03 154.958 166.078 157.102 167.476 158.598C168.874 160.094 170.447 161.166 172.194 161.814C173.941 162.413 176.038 162.712 178.485 162.712C182.928 162.712 186.198 161.939 188.295 160.393C190.392 158.797 192.014 156.553 193.163 153.661L195.184 154.634Z" fill="url(#paint0_linear_26_31)"/>
<path d="M216.671 111.848H245.353V141.693C245.353 149.672 243.98 155.556 241.234 159.346C238.488 163.086 234.045 164.956 227.904 164.956C221.763 164.956 217.32 163.086 214.574 159.346C211.828 155.556 210.455 149.672 210.455 141.693V111.848H212.702V141.693C212.702 145.832 213.051 149.323 213.75 152.165C214.449 154.958 215.498 157.102 216.896 158.598C218.293 160.094 219.866 161.166 221.613 161.814C223.361 162.413 225.458 162.712 227.904 162.712C230.35 162.712 232.447 162.413 234.195 161.814C235.942 161.166 237.515 160.094 238.913 158.598C240.31 157.102 241.359 154.958 242.058 152.165C242.757 149.323 243.106 145.832 243.106 141.693V114.092H216.671V111.848Z" fill="url(#paint1_linear_26_31)"/>
<path d="M269.877 161.964H290.547L281.485 137.13L285.679 134.737C289.124 132.842 290.846 129.825 290.846 125.686C290.846 117.957 284.955 114.092 273.173 114.092H266.283V164.208H264.036V111.848H273.173C279.763 111.848 284.73 113.07 288.075 115.514C291.42 117.907 293.093 121.298 293.093 125.686C293.093 130.673 290.996 134.338 286.802 136.682L284.256 138.103L293.767 164.208H269.877V161.964Z" fill="url(#paint2_linear_26_31)"/>
<path d="M315.544 161.964H336.213L327.152 137.13L331.346 134.737C334.791 132.842 336.513 129.825 336.513 125.686C336.513 117.957 330.622 114.092 318.839 114.092H311.95V164.208H309.703V111.848H318.839C325.43 111.848 330.397 113.07 333.742 115.514C337.087 117.907 338.76 121.298 338.76 125.686C338.76 130.673 336.663 134.338 332.469 136.682L329.923 138.103L339.434 164.208H315.544V161.964Z" fill="url(#paint3_linear_26_31)"/>
<path d="M357.916 111.848H388.246L369.524 141.768V164.208H367.277V141.768L348.555 111.848H351.176L368.401 139.3L384.202 114.092H357.916V111.848Z" fill="url(#paint4_linear_26_31)"/>
<path d="M169.275 200.644L168.152 198.7L172.345 196.306C175.79 194.411 177.513 191.394 177.513 187.255C177.513 179.526 171.622 175.661 159.839 175.661H152.95V231.761H150.703V173.418H159.839C166.429 173.418 171.397 174.639 174.742 177.083C178.087 179.476 179.759 182.867 179.759 187.255C179.759 192.242 177.662 195.907 173.469 198.251L169.275 200.644Z" fill="url(#paint5_linear_26_31)"/>
<path d="M219.847 214.557V216.801H194.834V173.418H197.081V214.557H219.847Z" fill="url(#paint6_linear_26_31)"/>
<path d="M236.937 214.557H261.351L245.999 178.429L229.673 216.801H227.277L245.999 172.67L264.721 216.801H236.937V214.557Z" fill="url(#paint7_linear_26_31)"/>
<path d="M277.758 216.801V173.418H280.004L304.418 212.687V173.418H306.664V216.801H304.418L280.004 177.457V216.801H277.758Z" fill="url(#paint8_linear_26_31)"/>
<path d="M354.456 212.388C351.71 215.829 347.217 217.549 340.976 217.549C334.735 217.549 330.267 215.779 327.571 212.238C324.875 208.698 323.527 202.988 323.527 195.109C323.527 187.23 324.875 181.521 327.571 177.98C330.267 174.44 334.735 172.67 340.976 172.67C348.215 172.67 353.133 175.038 355.729 179.775L337.381 195.109H333.862L352.808 179.327C350.611 176.385 346.667 174.913 340.976 174.913C338.48 174.913 336.383 175.188 334.685 175.736C332.988 176.235 331.415 177.207 329.967 178.653C328.569 180.05 327.521 182.119 326.822 184.862C326.123 187.555 325.774 190.97 325.774 195.109C325.774 199.248 326.123 202.689 326.822 205.432C327.521 208.124 328.569 210.194 329.967 211.64C331.415 213.036 332.988 214.009 334.685 214.557C336.383 215.056 338.48 215.305 340.976 215.305C346.667 215.305 350.611 213.834 352.808 210.892L354.456 212.388Z" fill="url(#paint9_linear_26_31)"/>
<path d="M399.003 173.418V175.661H383.276V216.801H381.03V175.661H365.303V173.418H399.003Z" fill="url(#paint10_linear_26_31)"/>
<defs>
<linearGradient id="paint0_linear_26_31" x1="241.118" y1="91.0754" x2="270.125" y2="230.909" gradientUnits="userSpaceOnUse">
<stop stop-color="#F6F6F6"/>
<stop offset="1" stop-color="#FFA400"/>
</linearGradient>
<linearGradient id="paint1_linear_26_31" x1="241.118" y1="91.0754" x2="270.125" y2="230.909" gradientUnits="userSpaceOnUse">
<stop stop-color="#F6F6F6"/>
<stop offset="1" stop-color="#FFA400"/>
</linearGradient>
<linearGradient id="paint2_linear_26_31" x1="241.118" y1="91.0754" x2="270.125" y2="230.909" gradientUnits="userSpaceOnUse">
<stop stop-color="#F6F6F6"/>
<stop offset="1" stop-color="#FFA400"/>
</linearGradient>
<linearGradient id="paint3_linear_26_31" x1="241.118" y1="91.0754" x2="270.125" y2="230.909" gradientUnits="userSpaceOnUse">
<stop stop-color="#F6F6F6"/>
<stop offset="1" stop-color="#FFA400"/>
</linearGradient>
<linearGradient id="paint4_linear_26_31" x1="241.118" y1="91.0754" x2="270.125" y2="230.909" gradientUnits="userSpaceOnUse">
<stop stop-color="#F6F6F6"/>
<stop offset="1" stop-color="#FFA400"/>
</linearGradient>
<linearGradient id="paint5_linear_26_31" x1="241.118" y1="91.0754" x2="270.125" y2="230.909" gradientUnits="userSpaceOnUse">
<stop stop-color="#F6F6F6"/>
<stop offset="1" stop-color="#FFA400"/>
</linearGradient>
<linearGradient id="paint6_linear_26_31" x1="241.118" y1="91.0754" x2="270.125" y2="230.909" gradientUnits="userSpaceOnUse">
<stop stop-color="#F6F6F6"/>
<stop offset="1" stop-color="#FFA400"/>
</linearGradient>
<linearGradient id="paint7_linear_26_31" x1="241.118" y1="91.0754" x2="270.125" y2="230.909" gradientUnits="userSpaceOnUse">
<stop stop-color="#F6F6F6"/>
<stop offset="1" stop-color="#FFA400"/>
</linearGradient>
<linearGradient id="paint8_linear_26_31" x1="241.118" y1="91.0754" x2="270.125" y2="230.909" gradientUnits="userSpaceOnUse">
<stop stop-color="#F6F6F6"/>
<stop offset="1" stop-color="#FFA400"/>
</linearGradient>
<linearGradient id="paint9_linear_26_31" x1="241.118" y1="91.0754" x2="270.125" y2="230.909" gradientUnits="userSpaceOnUse">
<stop stop-color="#F6F6F6"/>
<stop offset="1" stop-color="#FFA400"/>
</linearGradient>
<linearGradient id="paint10_linear_26_31" x1="241.118" y1="91.0754" x2="270.125" y2="230.909" gradientUnits="userSpaceOnUse">
<stop stop-color="#F6F6F6"/>
<stop offset="1" stop-color="#FFA400"/>
</linearGradient>
</defs>
</svg>
