<svg width="313" height="307" viewBox="0 0 313 307" fill="none" xmlns="http://www.w3.org/2000/svg">
<path fill-rule="evenodd" clip-rule="evenodd" d="M139.686 0.453001C135.983 0.737219 132.271 1.02209 128.461 1.73014C124.272 2.21886 120.285 3.01053 116.333 3.93793C92.5047 9.52994 71.0425 19.9962 52.6606 36.1666C15.8435 68.5543 -1.85669 109.32 0.153895 158.439C0.493306 166.731 1.37103 174.978 2.82923 183.158C6.33595 202.829 13.5057 221.083 24.3952 237.81C42.2177 265.187 66.3611 284.916 96.8221 296.823C109.2 301.661 122.043 304.585 135.257 306.043C140.781 306.653 146.315 306.718 151.848 306.783C154.501 306.814 157.153 306.845 159.805 306.937C168.065 307.221 176.285 306.523 184.47 305.348C199.638 303.171 214.131 298.759 227.884 292.054C254.714 278.973 275.94 259.66 291.414 234.133C305.372 211.107 312.412 186.047 312.972 159.156C313.143 150.955 312.516 142.804 311.332 134.685C309.191 119.994 304.887 105.968 298.559 92.554C293.542 81.921 287.035 72.2439 280.036 62.8103C269.103 48.0759 256.28 35.4067 240.995 25.2557C216.837 9.21081 190.189 0.968315 161.244 0.136782C154.07 -0.0693197 146.878 -0.0988739 139.71 0.451204L139.686 0.453001ZM41.4678 253.992L44.6481 257.497C46.1434 258.592 47.4145 259.825 48.6648 261.038C49.4182 261.77 50.164 262.493 50.9468 263.175C61.8849 272.699 73.9051 280.532 87.0279 286.723C89.2921 287.791 91.5179 288.939 93.744 290.088C97.0392 291.788 100.335 293.489 103.758 294.93L103.793 294.945C104.922 295.42 106.05 295.895 107.095 296.645C106.376 296.407 105.655 296.176 104.933 295.945C103.373 295.445 101.813 294.945 100.277 294.381C84.804 288.697 70.7334 280.544 57.9292 270.195C53.2657 266.426 48.9071 262.32 44.8655 257.884C43.5758 256.533 42.4126 255.367 41.2495 254.201L41.4678 253.992ZM246.403 260.995C245.987 261.364 245.57 261.732 245.155 262.102C227.551 276.901 207.856 287.134 185.765 292.69C177.431 294.786 168.977 296.146 160.387 296.661C142.089 297.76 124.509 294.302 107.424 288.096C85.7869 280.237 67.1988 267.684 51.2713 251.092C40.2449 239.605 32.5316 226.08 26.5334 211.492C21.615 199.53 18.4775 187.098 16.929 174.241C15.721 164.211 15.4886 154.156 16.399 144.135C19.3286 111.884 31.4871 83.4917 53.0469 59.2997C74.6518 35.0572 101.508 19.6817 133.278 12.936C140.745 11.3504 148.322 10.3651 155.951 10.1756C166.012 9.92571 175.871 11.6611 185.599 14.045C208.18 19.5788 228.328 29.9376 245.979 45.0544C262.95 59.5887 276.007 77.0683 285.058 97.526C290.184 109.111 293.69 121.162 295.707 133.65C297.147 142.564 297.116 151.533 296.547 160.519C295.491 177.194 291.579 193.185 284.904 208.478C276.513 227.703 264.627 244.471 249.08 258.604C248.194 259.409 247.299 260.202 246.403 260.995ZM278.86 239.453C286.801 228.708 293.206 217.117 298.059 204.668C307.389 180.316 310.245 155.462 306.866 129.877C321.063 202.627 276.409 277.285 202.257 297.836C206.857 296.063 211.388 294.125 215.824 291.983C229.257 285.497 241.255 276.944 252.501 267.16C262.185 258.734 271.225 249.785 278.86 239.453ZM111.983 15.1703C89.6719 23.4335 70.5269 35.8078 54.327 52.689C21.2808 88.024 8.34648 129.67 13.4203 176.289C12.7058 172.864 12.2457 168.599 11.7771 164.254C11.7213 163.737 11.6654 163.219 11.6089 162.7C11.1573 158.557 11.1698 154.387 11.1822 150.221C11.1836 149.751 11.185 149.282 11.1858 148.813C11.2113 132.629 14.05 116.93 19.4149 101.684C24.9834 85.8591 33.231 71.5351 43.5819 58.3463C55.6189 43.0094 70.9289 32.0095 88.4108 23.7539C95.6908 20.3161 103.26 17.6881 110.938 15.334C111.064 15.2954 111.196 15.2781 111.424 15.2484C111.566 15.2299 111.745 15.2066 111.983 15.1703ZM300.519 115.589C302.078 121.602 303.114 127.724 303.789 133.902C304.764 141.858 304.903 149.551 304.566 157.228C304.05 168.991 302.113 180.55 298.728 191.844C296.503 199.27 293.805 206.517 290.329 213.46L290.314 213.488C290.045 214.027 289.775 214.566 289.393 215.059C290.877 211.258 292.205 207.406 293.475 203.537C296.793 193.426 299.068 183.09 300.121 172.489C300.73 166.358 301.27 160.219 301.022 154.061C300.251 134.922 297.867 116.078 291 98.0028C284.485 80.8539 275.323 65.3292 263.233 51.5298C261.873 49.9782 260.538 48.4058 259.28 46.7609C263.414 49.844 266.988 53.5142 270.46 57.2833C285.823 73.9623 294.892 93.8987 300.519 115.589ZM15.1349 103.554C14.8262 104.466 14.5175 105.378 14.2037 106.288C11.2023 116.412 9.13309 126.434 8.26213 136.704C4.91202 176.206 15.63 211.524 39.6219 242.977C44.9383 249.947 50.3337 256.824 56.4315 263.157C55.7894 262.607 55.1397 262.064 54.49 261.522C53.0917 260.355 51.6934 259.188 50.3715 257.94C27.0126 235.887 12.0938 209.158 5.84935 177.613C3.88184 167.673 3.5526 157.63 4.17397 147.588C5.45965 126.812 10.8709 107.127 20.7382 88.7279C20.3881 89.6018 20.0328 90.4738 19.6774 91.3458C18.8681 93.3319 18.0587 95.3181 17.3116 97.3273C16.5453 99.3878 15.8401 101.471 15.1349 103.554ZM144.398 6.50213L143.973 6.50832C132.667 6.96126 121.893 8.73977 111.276 11.528C115.556 8.8812 138.312 4.44003 148.014 3.96846C160.764 3.34874 173.197 5.13931 185.537 8.05987C171.875 6.10117 158.136 6.30165 144.398 6.50213ZM158.551 300.58C159.927 300.573 161.302 300.565 162.678 300.562C174.675 300.149 186.136 298.386 197.807 295.286C182.352 303.381 145.19 305.198 126.927 298.858C137.411 300.696 147.981 300.638 158.551 300.58ZM27.8217 69.9816C30.8121 60.5054 56.9153 35.1227 73.9078 25.125C75.4195 24.233 76.7164 23.4639 78.0133 22.6947C59.0928 36.1227 41.513 50.9406 27.8217 69.9816ZM220.794 22.0376C221.299 22.2563 221.804 22.4751 222.31 22.6913C235.658 30.2477 247.278 39.5819 257.515 50.6702C242.941 36.3387 226.238 25.2139 207.472 17.0675C207.974 17.2334 208.476 17.3968 208.979 17.5602C210.125 17.9328 211.271 18.3053 212.406 18.708C214.056 19.2931 215.695 19.9125 217.319 20.5673C218.485 21.0378 219.639 21.5377 220.794 22.0376ZM231.865 276.669C245.024 267.791 256.723 257.312 266.79 245.045C268.788 242.518 270.629 240.174 272.469 237.83C261.991 253.953 249.176 267.653 231.865 276.669ZM95.4726 140.949C94.4459 143.457 93.001 145.396 91.1377 146.764C89.2745 148.133 86.4796 148.817 82.7532 148.817C78.0761 148.817 74.6918 147.391 72.6004 144.541C70.509 141.652 69.4633 137.167 69.4633 131.085V125.498C69.4633 119.416 70.509 114.95 72.6004 112.099C74.6918 109.21 78.0761 107.766 82.7532 107.766C86.4796 107.766 89.2745 108.45 91.1377 109.818C93.001 111.187 94.4459 113.125 95.4726 115.634L93.9326 116.375C93.058 114.171 91.8222 112.479 90.2251 111.301C88.6281 110.085 86.1374 109.476 82.7532 109.476C80.8899 109.476 79.2929 109.723 77.962 110.218C76.6311 110.674 75.4333 111.472 74.3686 112.612C73.3039 113.753 72.5054 115.406 71.973 117.573C71.4407 119.701 71.1745 122.343 71.1745 125.498V131.085C71.1745 134.24 71.4407 136.901 71.973 139.067C72.5054 141.196 73.3039 142.83 74.3686 143.971C75.4333 145.111 76.6311 145.928 77.962 146.422C79.2929 146.878 80.8899 147.106 82.7532 147.106C86.1374 147.106 88.6281 146.517 90.2251 145.339C91.8222 144.123 93.058 142.412 93.9326 140.208L95.4726 140.949ZM111.838 108.336H133.683V131.085C133.683 137.167 132.637 141.652 130.546 144.541C128.455 147.391 125.07 148.817 120.393 148.817C115.716 148.817 112.332 147.391 110.241 144.541C108.149 141.652 107.103 137.167 107.103 131.085V108.336H108.815V131.085C108.815 134.24 109.081 136.901 109.613 139.067C110.145 141.196 110.944 142.83 112.009 143.971C113.073 145.111 114.271 145.928 115.602 146.422C116.933 146.878 118.53 147.106 120.393 147.106C122.256 147.106 123.854 146.878 125.184 146.422C126.515 145.928 127.713 145.111 128.778 143.971C129.843 142.83 130.641 141.196 131.173 139.067C131.706 136.901 131.972 134.24 131.972 131.085V110.047H111.838V108.336ZM168.105 146.536H152.362V148.247H170.557L163.313 128.348L165.253 127.265C168.447 125.479 170.044 122.685 170.044 118.884C170.044 115.539 168.77 112.954 166.222 111.13C163.675 109.267 159.891 108.336 154.872 108.336H147.913V148.247H149.624V110.047H154.872C163.846 110.047 168.333 112.992 168.333 118.884C168.333 122.039 167.021 124.338 164.397 125.783L161.203 127.607L168.105 146.536ZM187.144 146.536H202.886L195.985 127.607L199.179 125.783C201.803 124.338 203.115 122.039 203.115 118.884C203.115 112.992 198.628 110.047 189.654 110.047H184.406V148.247H182.695V108.336H189.654C194.673 108.336 198.457 109.267 201.004 111.13C203.552 112.954 204.826 115.539 204.826 118.884C204.826 122.685 203.229 125.479 200.035 127.265L198.095 128.348L205.339 148.247H187.144V146.536ZM242.517 108.336H219.416V110.047H239.437L227.402 129.261L214.283 108.336H212.287L226.546 131.142V148.247H228.257V131.142L242.517 108.336ZM75.7388 176.02L74.8833 174.538L78.0774 172.713C80.7011 171.269 82.013 168.969 82.013 165.815C82.013 159.923 77.526 156.977 68.5521 156.977H63.3046V199.739H61.5935V155.267H68.5521C73.5714 155.267 77.3549 156.198 79.9026 158.06C82.4503 159.885 83.7241 162.47 83.7241 165.815C83.7241 169.616 82.1271 172.409 78.933 174.196L75.7388 176.02ZM114.256 188.336V186.625H96.9168V155.267H95.2057V188.336H114.256ZM127.273 186.625H145.868L134.175 159.087L121.741 188.336H119.916L134.175 154.697L148.434 188.336H127.273V186.625ZM158.364 155.267V188.336H160.075V158.346L178.669 188.336H180.381V155.267H178.669V185.2L160.075 155.267H158.364ZM216.781 184.972C214.689 187.594 211.267 188.906 206.514 188.906C201.761 188.906 198.357 187.556 196.304 184.858C194.251 182.159 193.224 177.807 193.224 171.801C193.224 165.796 194.251 161.443 196.304 158.745C198.357 156.046 201.761 154.697 206.514 154.697C212.027 154.697 215.773 156.502 217.75 160.113L203.776 171.801H201.095L215.526 159.771C213.853 157.528 210.849 156.407 206.514 156.407C204.612 156.407 203.015 156.616 201.723 157.034C200.43 157.414 199.232 158.155 198.129 159.258C197.064 160.322 196.266 161.899 195.734 163.99C195.201 166.043 194.935 168.646 194.935 171.801C194.935 174.956 195.201 177.579 195.734 179.669C196.266 181.722 197.064 183.299 198.129 184.402C199.232 185.466 200.43 186.207 201.723 186.625C203.015 187.005 204.612 187.195 206.514 187.195C210.849 187.195 213.853 186.074 215.526 183.831L216.781 184.972ZM250.71 156.977V155.267H225.043V156.977H237.021V188.336H238.732V156.977H250.71Z" fill="url(#paint0_linear_287_51)"/>
<defs>
<linearGradient id="paint0_linear_287_51" x1="130.458" y1="92.5021" x2="152.584" y2="199.082" gradientUnits="userSpaceOnUse">
<stop stop-color="#F6F6F6"/>
<stop offset="1" stop-color="#EF8B0B"/>
</linearGradient>
</defs>
</svg>
