<svg width="46" height="45" viewBox="0 0 46 45" fill="none" xmlns="http://www.w3.org/2000/svg">
<path fill-rule="evenodd" clip-rule="evenodd" d="M25.471 0.0664002C26.0153 0.108061 26.5608 0.149818 27.1208 0.253603C27.7364 0.325239 28.3223 0.441283 28.9031 0.577221C32.4051 1.3969 35.5593 2.93103 38.2608 5.30129C43.6716 10.0487 46.2729 16.0241 45.9774 23.224C45.9275 24.4394 45.7985 25.6483 45.5842 26.8473C45.0688 29.7307 44.0151 32.4063 42.4148 34.8582C39.7955 38.871 36.2473 41.7629 31.7706 43.5082C29.9514 44.2175 28.064 44.646 26.122 44.8598C25.3102 44.9491 24.4969 44.9587 23.6837 44.9682C23.2938 44.9728 22.904 44.9774 22.5144 44.9907C21.3004 45.0324 20.0923 44.9301 18.8894 44.7579C16.6603 44.4387 14.5303 43.792 12.5091 42.8092C8.56598 40.8918 5.44647 38.0609 3.17232 34.3191C1.12104 30.944 0.0864362 27.2707 0.00407764 23.329C-0.021041 22.127 0.0711793 20.9322 0.245094 19.7421C0.559765 17.5887 1.1923 15.5327 2.12236 13.5665C2.85962 12.008 3.81588 10.5895 4.8446 9.20672C6.45137 7.04695 8.33587 5.1899 10.5821 3.70198C14.1326 1.35012 18.0489 0.141935 22.3027 0.0200495C23.3571 -0.0101609 24.4141 -0.0144929 25.4676 0.0661375L25.471 0.0664002ZM39.9057 37.2301L39.4383 37.7439C39.2186 37.9043 39.0317 38.0851 38.848 38.263C38.7373 38.3701 38.6277 38.4762 38.5126 38.5761C36.9051 39.9721 35.1386 41.1203 33.21 42.0278C32.8772 42.1843 32.5501 42.3527 32.223 42.521C31.7387 42.7702 31.2543 43.0195 30.7512 43.2308L30.7461 43.233C30.5802 43.3026 30.4143 43.3723 30.2607 43.4821C30.3665 43.4473 30.4726 43.4134 30.5787 43.3795C30.8079 43.3062 31.0371 43.233 31.2629 43.1503C33.5368 42.3172 35.6047 41.122 37.4864 39.6051C38.1718 39.0527 38.8124 38.4508 39.4063 37.8006C39.5957 37.6027 39.7665 37.4319 39.9373 37.2612L39.9378 37.2607L39.9057 37.2301ZM9.78756 38.2567C9.84869 38.3107 9.90982 38.3647 9.9708 38.4188C12.558 40.5881 15.4524 42.088 18.6991 42.9025C19.9239 43.2097 21.1663 43.409 22.4287 43.4846C25.1179 43.6455 27.7015 43.1387 30.2124 42.2291C33.3923 41.0771 36.1241 39.2371 38.4649 36.805C40.0854 35.1213 41.219 33.1388 42.1005 31.0005C42.8234 29.2471 43.2845 27.4248 43.512 25.5402C43.6896 24.07 43.7237 22.5962 43.5899 21.1273C43.1594 16.3999 41.3725 12.2382 38.204 8.69215C35.0288 5.13868 31.0819 2.88494 26.4129 1.89616C25.3154 1.66374 24.2018 1.51932 23.0807 1.49154C21.6021 1.45491 20.1532 1.70928 18.7235 2.05871C15.4048 2.86986 12.4437 4.38825 9.84972 6.60406C7.35565 8.7345 5.43669 11.2966 4.10647 14.2953C3.35322 15.9934 2.83782 17.7599 2.5414 19.5904C2.32981 20.8971 2.33435 22.2116 2.41799 23.5288C2.5732 25.9731 3.14817 28.317 4.12913 30.5586C5.36236 33.3767 7.10917 35.8345 9.39406 37.9061C9.5242 38.0241 9.65588 38.1404 9.78756 38.2567ZM5.01742 35.099C3.8504 33.5239 2.90899 31.8249 2.19574 30.0003C0.824692 26.4307 0.404864 22.7876 0.901478 19.0374C-1.18492 29.7011 5.37762 40.6443 16.2753 43.6567C15.5992 43.3969 14.9334 43.1128 14.2814 42.7989C12.3072 41.8481 10.544 40.5944 8.89121 39.1602C7.46802 37.9252 6.13948 36.6135 5.01742 35.099ZM29.5424 2.22365C32.8214 3.43488 35.635 5.24871 38.0158 7.72314C42.8725 12.9025 44.7734 19.0071 44.0277 25.8404C44.1327 25.3384 44.2003 24.7132 44.2692 24.0764C44.2774 24.0006 44.2856 23.9246 44.2939 23.8486C44.3603 23.2412 44.3584 22.63 44.3566 22.0192C44.3564 21.9505 44.3562 21.8817 44.3561 21.813C44.3523 19.4407 43.9351 17.1395 43.1467 14.9048C42.3283 12.5852 41.1162 10.4856 39.595 8.55239C37.826 6.30431 35.5759 4.69195 33.0067 3.48185C31.9368 2.97793 30.8245 2.59272 29.6961 2.24765C29.6775 2.24199 29.6581 2.23946 29.6245 2.23511C29.6037 2.2324 29.5774 2.22898 29.5424 2.22365ZM1.83432 16.9431C1.60511 17.8244 1.45292 18.7217 1.35362 19.6273C1.21036 20.7935 1.19004 21.9211 1.23953 23.0464C1.31536 24.7706 1.59994 26.465 2.09742 28.1205C2.42452 29.2089 2.82097 30.2712 3.33188 31.2889L3.33399 31.2931C3.37363 31.372 3.41329 31.451 3.46945 31.5233C3.25131 30.9661 3.05608 30.4016 2.86946 29.8344C2.38184 28.3523 2.04747 26.8374 1.89277 25.2833C1.80332 24.3847 1.72395 23.4849 1.76039 22.5822C1.87364 19.7769 2.22398 17.0146 3.23321 14.3652C4.19074 11.8516 5.53721 9.57594 7.31405 7.55323C7.51383 7.3258 7.71011 7.09531 7.89503 6.85421C7.28743 7.30612 6.76219 7.8441 6.25196 8.39658C3.99412 10.8414 2.66121 13.7637 1.83432 16.9431ZM43.7757 15.179C43.8211 15.3126 43.8664 15.4463 43.9126 15.5796C44.3537 17.0636 44.6578 18.5327 44.7858 20.038C45.2781 25.8283 43.7029 31.0052 40.177 35.6155C39.3956 36.6372 38.6027 37.6453 37.7066 38.5735C37.8009 38.4928 37.8964 38.4133 37.9919 38.3339C38.1974 38.1628 38.4029 37.9917 38.5972 37.8088C42.0301 34.5762 44.2226 30.6584 45.1404 26.0344C45.4295 24.5775 45.4779 23.1053 45.3866 21.6335C45.1976 18.5881 44.4024 15.7027 42.9522 13.0057C43.0037 13.1338 43.0559 13.2616 43.1081 13.3893C43.227 13.6805 43.346 13.9717 43.4558 14.2662C43.5684 14.5683 43.6721 14.8736 43.7757 15.179ZM24.7786 0.953081L24.841 0.953988C26.5026 1.02038 28.086 1.28107 29.6463 1.68977C29.0173 1.3018 25.673 0.650819 24.2471 0.581697C22.3734 0.490858 20.5461 0.753319 18.7326 1.18141C20.7404 0.894308 22.7595 0.923694 24.7786 0.953081ZM22.6987 44.059C22.4964 44.0579 22.2942 44.0568 22.0921 44.0563C20.3288 43.9958 18.6446 43.7374 16.9293 43.2829C19.2006 44.4695 24.6622 44.7359 27.3461 43.8066C25.8054 44.076 24.2521 44.0675 22.6987 44.059ZM41.9112 10.2579C41.4717 8.86887 37.6354 5.14828 35.1381 3.68281C34.9162 3.55221 34.7258 3.43957 34.5354 3.32695L34.5348 3.32659C37.3154 5.29485 39.8991 7.46686 41.9112 10.2579ZM13.5511 3.23027C13.4768 3.26233 13.4026 3.29439 13.3282 3.32609C11.3665 4.4337 9.65887 5.80191 8.15428 7.42722C10.2963 5.32652 12.751 3.69584 15.5089 2.50174C15.4352 2.52606 15.3613 2.55001 15.2875 2.57396C15.119 2.62857 14.9506 2.68319 14.7837 2.74221C14.5413 2.82798 14.3004 2.91877 14.0618 3.01476C13.8904 3.08372 13.7207 3.157 13.5511 3.23027ZM11.9241 40.5541C9.99009 39.2528 8.27076 37.7168 6.79122 35.9186C6.49763 35.5482 6.22712 35.2046 5.95662 34.861C7.4966 37.2244 9.37985 39.2325 11.9241 40.5541ZM27.8639 31.847C28.8651 31.1136 29.6415 30.0747 30.1932 28.7302L29.3657 28.333C28.8957 29.5145 28.2316 30.4312 27.3735 31.0831C26.5153 31.7146 25.177 32.0303 23.3585 32.0303C22.3573 32.0303 21.4991 31.9081 20.784 31.6636C20.0689 31.3988 19.4252 30.9609 18.8531 30.3497C18.281 29.7386 17.8519 28.8627 17.5659 27.7219C17.2798 26.5607 17.1368 25.1348 17.1368 23.444V20.4495C17.1368 18.7587 17.2798 17.3429 17.5659 16.2022C17.8519 15.041 18.281 14.1549 18.8531 13.5438C19.4252 12.9326 20.0689 12.5048 20.784 12.2604C21.4991 11.9956 22.3573 11.8632 23.3585 11.8632C25.177 11.8632 26.5153 12.1891 27.3735 12.841C28.2316 13.4725 28.8957 14.379 29.3657 15.5605L30.1932 15.1632C29.6415 13.8188 28.8651 12.7799 27.8639 12.0465C26.8627 11.3131 25.3609 10.9465 23.3585 10.9465C20.8453 10.9465 19.0268 11.7206 17.903 13.2688C16.7792 14.7966 16.2173 17.1901 16.2173 20.4495V23.444C16.2173 26.7033 16.7792 29.1071 17.903 30.6553C19.0268 32.1831 20.8453 32.947 23.3585 32.947C25.3609 32.947 26.8627 32.5803 27.8639 31.847Z" fill="url(#paint0_linear_317_16)"/>
<defs>
<linearGradient id="paint0_linear_317_16" x1="20.6518" y1="-4.31202" x2="47.0886" y2="20.643" gradientUnits="userSpaceOnUse">
<stop stop-color="#F6F6F6"/>
<stop offset="1" stop-color="#EF8B0B"/>
</linearGradient>
</defs>
</svg>
