<svg width="109" height="107" viewBox="0 0 109 107" fill="none" xmlns="http://www.w3.org/2000/svg">
<path fill-rule="evenodd" clip-rule="evenodd" d="M59.8364 0.15646C61.1151 0.254625 62.3967 0.353017 63.7121 0.597567C65.1584 0.766364 66.5347 1.0398 67.8991 1.36011C76.126 3.29152 83.5358 6.90641 89.8821 12.4915C102.593 23.6778 108.704 37.7577 108.01 54.7228C107.893 57.5867 107.59 60.4353 107.086 63.2605C105.876 70.0546 103.4 76.3592 99.6408 82.1365C93.4876 91.5921 85.152 98.4063 74.6354 102.519C70.3619 104.19 65.9279 105.2 61.3659 105.703C59.4588 105.914 57.5481 105.936 55.6377 105.959C54.7219 105.97 53.8061 105.98 52.8907 106.012C50.0388 106.11 47.2009 105.869 44.375 105.463C39.1383 104.711 34.1345 103.187 29.3863 100.872C20.1232 96.3535 12.7949 89.6832 7.45241 80.8663C2.63355 72.9136 0.203056 64.258 0.00957919 54.9703C-0.0494294 52.138 0.167214 49.3227 0.575776 46.5184C1.315 41.4444 2.80096 36.5998 4.98585 31.9669C6.71781 28.2944 8.96427 24.9521 11.3809 21.6938C15.1556 16.6048 19.5826 12.229 24.8595 8.72299C33.2004 3.18129 42.4005 0.334443 52.3936 0.0472429C54.8705 -0.0239421 57.3536 -0.0341498 59.8284 0.15584L59.8364 0.15646ZM93.7464 87.7254L92.6484 88.9362C92.1322 89.3142 91.6934 89.7402 91.2617 90.1592C91.0016 90.4118 90.7441 90.6617 90.4738 90.8971C86.6975 94.1865 82.5475 96.892 78.0168 99.0303C77.2351 99.3992 76.4667 99.7958 75.6982 100.193C74.5605 100.78 73.4225 101.367 72.2408 101.865L72.2285 101.87C71.839 102.034 71.4493 102.198 71.0885 102.457C71.3369 102.375 71.5861 102.295 71.8353 102.215C72.3738 102.043 72.9124 101.87 73.4427 101.675C78.7846 99.7122 83.6425 96.8961 88.0631 93.3218C89.6732 92.02 91.178 90.6018 92.5734 89.0698C93.0185 88.6031 93.4199 88.2006 93.8214 87.7981L93.8218 87.7976L93.7464 87.7254ZM22.9926 90.1442C23.1363 90.2715 23.28 90.3988 23.4234 90.5266C29.5011 95.6381 36.3008 99.1723 43.9278 101.091C46.8052 101.815 49.7239 102.285 52.6894 102.463C59.007 102.842 65.0764 101.648 70.975 99.5046C78.4453 96.7901 84.8628 92.4547 90.3618 86.7239C94.1687 82.7565 96.8317 78.0851 98.9025 73.0466C100.601 68.9151 101.684 64.6212 102.218 60.1806C102.636 56.7164 102.716 53.2436 102.401 49.7824C101.39 38.6433 97.1923 28.837 89.7488 20.4814C82.2897 12.1083 73.0176 6.79781 62.0491 4.46792C59.471 3.92029 56.8549 3.57997 54.2211 3.51453C50.7476 3.42821 47.3438 4.02759 43.9853 4.85096C36.189 6.76227 29.2328 10.3401 23.139 15.5612C17.2799 20.5812 12.7719 26.6184 9.64693 33.6842C7.87738 37.6854 6.66661 41.8476 5.97025 46.161C5.47318 49.2399 5.48385 52.3374 5.68035 55.4412C6.04497 61.2006 7.39569 66.7234 9.70015 72.0054C12.5972 78.6458 16.7009 84.4369 22.0685 89.3184C22.3741 89.5963 22.6834 89.8703 22.9926 90.1442ZM11.7869 82.7041C9.04536 78.9926 6.83379 74.9892 5.15823 70.6898C1.93737 62.2788 0.951106 53.6946 2.11775 44.8579C-2.78361 69.9848 12.6331 95.7705 38.2339 102.869C36.6457 102.256 35.0814 101.587 33.5499 100.847C28.9121 98.6069 24.7699 95.6529 20.8872 92.2734C17.5439 89.3633 14.4229 86.2726 11.7869 82.7041ZM69.4011 5.23961C77.104 8.09362 83.7138 12.3676 89.3068 18.1981C100.716 30.4023 105.182 44.7864 103.43 60.8878C103.677 59.7049 103.835 58.2319 103.997 56.7314C104.016 56.5527 104.036 56.3736 104.055 56.1946C104.211 54.7635 104.207 53.3233 104.203 51.8843C104.202 51.7222 104.202 51.5601 104.201 51.398C104.193 45.8082 103.212 40.386 101.36 35.1203C99.4377 29.6546 96.5902 24.7073 93.0165 20.1521C88.8608 14.8549 83.575 11.0557 77.5394 8.2043C75.026 7.0169 72.4128 6.10923 69.762 5.29616C69.7185 5.28281 69.6727 5.27685 69.594 5.2666C69.5449 5.26021 69.4831 5.25215 69.4011 5.23961ZM4.30917 39.9231C3.77072 41.9997 3.41321 44.1141 3.17993 46.248C2.84337 48.9958 2.79564 51.6528 2.91191 54.3044C3.09005 58.3671 3.75857 62.3597 4.92726 66.2604C5.69568 68.8251 6.62703 71.3283 7.82725 73.7262L7.83222 73.7361C7.92534 73.9222 8.01849 74.1083 8.15044 74.2786C7.63798 72.9656 7.17933 71.6355 6.74094 70.299C5.59542 66.8067 4.80992 63.237 4.44649 59.5753C4.23635 57.4579 4.0499 55.3376 4.13551 53.2106C4.40155 46.6004 5.22457 40.0917 7.59545 33.8489C9.84488 27.9259 13.008 22.5638 17.1822 17.7977C17.6515 17.2618 18.1126 16.7187 18.547 16.1506C17.1196 17.2154 15.8857 18.4831 14.6871 19.7849C9.38298 25.5456 6.25172 32.4314 4.30917 39.9231ZM102.838 35.766C102.944 36.081 103.051 36.396 103.159 36.7103C104.196 40.2071 104.91 43.6687 105.211 47.2157C106.367 60.8593 102.667 73.0577 94.3837 83.9211C92.5482 86.3284 90.6855 88.7037 88.5802 90.891C88.8019 90.7009 89.0262 90.5136 89.2505 90.3263C89.7333 89.9232 90.216 89.5201 90.6724 89.089C98.7371 81.4722 103.888 72.2405 106.044 61.345C106.723 57.9121 106.837 54.4432 106.622 50.9751C106.178 43.7993 104.31 37.0004 100.903 30.6455C101.024 30.9473 101.147 31.2484 101.27 31.5496C101.549 32.2356 101.828 32.9216 102.086 33.6156C102.351 34.3272 102.594 35.0466 102.838 35.766ZM58.2099 2.24575L58.3564 2.24789C62.26 2.40433 65.9796 3.0186 69.6451 3.98161C68.1675 3.06745 60.3109 1.53353 56.9614 1.37066C52.5596 1.15661 48.267 1.77505 44.0067 2.78377C48.7233 2.10726 53.4666 2.17651 58.2099 2.24575ZM53.3236 103.816C52.8486 103.814 52.3736 103.811 51.8987 103.81C47.7565 103.667 43.7998 103.059 39.7702 101.988C45.1062 104.784 57.9365 105.411 64.2415 103.222C60.6221 103.857 56.9729 103.837 53.3236 103.816ZM98.4578 24.1707C97.4253 20.8978 88.4132 12.1309 82.5465 8.67784C82.0252 8.37013 81.578 8.10475 81.1307 7.83942L81.1291 7.83846C87.6614 12.4763 93.7308 17.5942 98.4578 24.1707ZM31.8341 7.61152C31.6598 7.68706 31.4854 7.7626 31.3107 7.83729C26.7023 10.4471 22.6906 13.6711 19.156 17.5008C24.188 12.5509 29.9546 8.70854 36.4335 5.89488C36.2603 5.95218 36.0868 6.00862 35.9133 6.06505C35.5176 6.19373 35.1219 6.32241 34.7299 6.46149C34.1603 6.66358 33.5945 6.87751 33.034 7.10369C32.6313 7.2662 32.2327 7.43886 31.8341 7.61152ZM28.012 95.558C23.4687 92.4916 19.4297 88.8723 15.9539 84.6352C15.2642 83.7625 14.6288 82.9529 13.9933 82.1433C17.611 87.712 22.0351 92.4437 28.012 95.558ZM65.4578 75.0412C67.8098 73.3132 69.6338 70.8652 70.9298 67.6972L68.9858 66.7612C67.8818 69.5452 66.3218 71.7052 64.3058 73.2412C62.2898 74.7292 59.1458 75.4732 54.8738 75.4732C52.5218 75.4732 50.5058 75.1852 48.8258 74.6092C47.1458 73.9852 45.6338 72.9532 44.2898 71.5132C42.9458 70.0732 41.9378 68.0092 41.2658 65.3212C40.5938 62.5852 40.2578 59.2252 40.2578 55.2412V48.1852C40.2578 44.2012 40.5938 40.8652 41.2658 38.1772C41.9378 35.4412 42.9458 33.3532 44.2898 31.9132C45.6338 30.4732 47.1458 29.4652 48.8258 28.8892C50.5058 28.2652 52.5218 27.9532 54.8738 27.9532C59.1458 27.9532 62.2898 28.7212 64.3058 30.2572C66.3218 31.7452 67.8818 33.8812 68.9858 36.6652L70.9298 35.7292C69.6338 32.5612 67.8098 30.1132 65.4578 28.3852C63.1058 26.6572 59.5778 25.7932 54.8738 25.7932C48.9698 25.7932 44.6978 27.6172 42.0578 31.2652C39.4178 34.8652 38.0978 40.5052 38.0978 48.1852V55.2412C38.0978 62.9212 39.4178 68.5852 42.0578 72.2332C44.6978 75.8332 48.9698 77.6332 54.8738 77.6332C59.5778 77.6332 63.1058 76.7692 65.4578 75.0412Z" fill="url(#paint0_linear_304_27)"/>
<defs>
<linearGradient id="paint0_linear_304_27" x1="48.5152" y1="-10.1604" x2="110.797" y2="48.4534" gradientUnits="userSpaceOnUse">
<stop stop-color="#F6F6F6"/>
<stop offset="1" stop-color="#EF8B0B"/>
</linearGradient>
</defs>
</svg>
