<svg id="#LogoS" width="149" height="90" viewBox="0 0 149 90" fill="none" xmlns="http://www.w3.org/2000/svg">
<path d="M119.376 45C119.376 69.8528 99.2292 90 74.3763 90C49.5235 90 29.3763 69.8528 29.3763 45C29.3763 20.1472 49.5235 0 74.3763 0C99.2292 0 119.376 20.1472 119.376 45Z" fill="#2D2B30"/>
<path fill-rule="evenodd" clip-rule="evenodd" d="M75.8714 59.9562C107.113 54.4117 131.285 43.4164 129.862 35.3976C129.157 31.4247 122.301 28.9278 111.763 28.0939C132.8 27.8591 147.37 31.3566 148.56 38.0641C150.427 48.5801 118.701 63.004 77.6986 70.2808C36.6964 77.5577 1.94461 74.9318 0.0782956 64.4158C-1.11266 57.7052 11.3755 49.4033 31.2242 42.3827C21.6062 46.7942 16.0214 51.5009 16.7269 55.4762C18.15 63.495 44.6299 65.5008 75.8714 59.9562Z" fill="#2D2B30"/>
<path d="M90.3099 60.552C89.1219 63.456 87.4499 65.7 85.2939 67.284C83.1379 68.868 79.9039 69.66 75.5919 69.66C70.1799 69.66 66.2639 68.01 63.8439 64.71C61.4239 61.366 60.2139 56.174 60.2139 49.134V42.666C60.2139 35.626 61.4239 30.456 63.8439 27.156C66.2639 23.812 70.1799 22.14 75.5919 22.14C79.9039 22.14 83.1379 22.932 85.2939 24.516C87.4499 26.1 89.1219 28.344 90.3099 31.248L88.5279 32.106C87.5159 29.554 86.0859 27.596 84.2379 26.232C82.3899 24.824 79.5079 24.12 75.5919 24.12C73.4359 24.12 71.5879 24.406 70.0479 24.978C68.5079 25.506 67.1219 26.43 65.8899 27.75C64.6579 29.07 63.7339 30.984 63.1179 33.492C62.5019 35.956 62.1939 39.014 62.1939 42.666V49.134C62.1939 52.786 62.5019 55.866 63.1179 58.374C63.7339 60.838 64.6579 62.73 65.8899 64.05C67.1219 65.37 68.5079 66.316 70.0479 66.888C71.5879 67.416 73.4359 67.68 75.5919 67.68C79.5079 67.68 82.3899 66.998 84.2379 65.634C86.0859 64.226 87.5159 62.246 88.5279 59.694L90.3099 60.552Z" fill="url(#paint0_linear_239_27)"/>
<defs>
<linearGradient id="paint0_linear_239_27" x1="69.8133" y1="-16.0738" x2="131.436" y2="36.5248" gradientUnits="userSpaceOnUse">
<stop stop-color="#F6F6F6"/>
<stop offset="1" stop-color="#EF8B0B"/>
</linearGradient>
</defs>
</svg>
